{
	"asset":{
		"generator":"Khronos glTF Blender I/O v4.4.55",
		"version":"2.0"
	},
	"extensionsUsed":[
		"EXT_texture_webp"
	],
	"extensionsRequired":[
		"EXT_texture_webp"
	],
	"scene":0,
	"scenes":[
		{
			"name":"Scene",
			"nodes":[
				0,
				1,
				2,
				3
			]
		}
	],
	"nodes":[
		{
			"mesh":0,
			"name":"CourbeB\u00e9zier"
		},
		{
			"name":"CourbeB\u00e9zier.001",
			"translation":[
				-1.9079991579055786,
				0,
				-1.5369657278060913
			]
		},
		{
			"mesh":1,
			"name":"CourbeB\u00e9zier.002",
			"rotation":[
				0,
				0,
				-0.464629590511322,
				0.8855051398277283
			],
			"scale":[
				0.1357487589120865,
				0.1357487589120865,
				0.1357487589120865
			],
			"translation":[
				-1.242467999458313,
				0.6828478574752808,
				-0.052731096744537354
			]
		},
		{
			"mesh":2,
			"name":"CourbeB\u00e9zier.003",
			"rotation":[
				-0.2142477035522461,
				0.40831977128982544,
				-0.41228464245796204,
				0.7857444286346436
			],
			"scale":[
				0.1357487589120865,
				0.1357487589120865,
				0.1357487589120865
			],
			"translation":[
				-1.6524012088775635,
				0.6758737564086914,
				-0.01848762109875679
			]
		}
	],
	"materials":[
		{
			"doubleSided":true,
			"name":"Material.002",
			"pbrMetallicRoughness":{
				"baseColorFactor":[
					0.04313916340470314,
					0.26932287216186523,
					0.8019199371337891,
					1
				],
				"metallicFactor":0,
				"roughnessFactor":0.5
			}
		},
		{
			"doubleSided":true,
			"name":"Material.003",
			"pbrMetallicRoughness":{
				"baseColorTexture":{
					"index":0
				},
				"metallicFactor":0,
				"roughnessFactor":0.5
			}
		},
		{
			"doubleSided":true,
			"name":"Material.001",
			"pbrMetallicRoughness":{
				"baseColorTexture":{
					"index":1
				},
				"metallicFactor":0,
				"roughnessFactor":0.5
			}
		}
	],
	"meshes":[
		{
			"name":"CourbeB\u00e9zier.002",
			"primitives":[
				{
					"attributes":{
						"POSITION":0,
						"NORMAL":1,
						"TEXCOORD_0":2,
						"COLOR_0":3,
						"COLOR_1":4
					},
					"indices":5,
					"material":0
				}
			]
		},
		{
			"name":"CourbeB\u00e9zier.003",
			"primitives":[
				{
					"attributes":{
						"POSITION":6,
						"NORMAL":7,
						"TEXCOORD_0":8
					},
					"indices":9,
					"material":1
				}
			]
		},
		{
			"name":"CourbeB\u00e9zier.004",
			"primitives":[
				{
					"attributes":{
						"POSITION":10,
						"NORMAL":11,
						"TEXCOORD_0":12
					},
					"indices":13,
					"material":2
				}
			]
		}
	],
	"textures":[
		{
			"extensions":{
				"EXT_texture_webp":{
					"source":0
				}
			},
			"sampler":0
		},
		{
			"extensions":{
				"EXT_texture_webp":{
					"source":0
				}
			},
			"sampler":0
		}
	],
	"images":[
		{
			"mimeType":"image/webp",
			"name":"MangekySharingan.webp",
			"uri":"MangekySharingan_webp.webp"
		}
	],
	"accessors":[
		{
			"bufferView":0,
			"componentType":5126,
			"count":48025,
			"max":[
				2.428605318069458,
				1.2883274555206299,
				3.056330919265747
			],
			"min":[
				-4.107585430145264,
				-0.13914892077445984,
				-1.5938433408737183
			],
			"type":"VEC3"
		},
		{
			"bufferView":1,
			"componentType":5126,
			"count":48025,
			"type":"VEC3"
		},
		{
			"bufferView":2,
			"componentType":5126,
			"count":48025,
			"type":"VEC2"
		},
		{
			"bufferView":3,
			"componentType":5121,
			"count":48025,
			"normalized":true,
			"type":"VEC4"
		},
		{
			"bufferView":4,
			"componentType":5123,
			"count":48025,
			"normalized":true,
			"type":"VEC4"
		},
		{
			"bufferView":5,
			"componentType":5123,
			"count":279642,
			"type":"SCALAR"
		},
		{
			"bufferView":6,
			"componentType":5126,
			"count":201,
			"max":[
				1.6575591564178467,
				2.1150331497192383,
				3.5277631282806396
			],
			"min":[
				-0.304010808467865,
				0.11503326892852783,
				1.5661929845809937
			],
			"type":"VEC3"
		},
		{
			"bufferView":7,
			"componentType":5126,
			"count":201,
			"type":"VEC3"
		},
		{
			"bufferView":8,
			"componentType":5126,
			"count":201,
			"type":"VEC2"
		},
		{
			"bufferView":9,
			"componentType":5123,
			"count":768,
			"type":"SCALAR"
		},
		{
			"bufferView":10,
			"componentType":5126,
			"count":198,
			"max":[
				1.6575591564178467,
				2.1150331497192383,
				3.5277631282806396
			],
			"min":[
				-0.304010808467865,
				0.11503326892852783,
				1.5661929845809937
			],
			"type":"VEC3"
		},
		{
			"bufferView":11,
			"componentType":5126,
			"count":198,
			"type":"VEC3"
		},
		{
			"bufferView":12,
			"componentType":5126,
			"count":198,
			"type":"VEC2"
		},
		{
			"bufferView":13,
			"componentType":5123,
			"count":768,
			"type":"SCALAR"
		}
	],
	"bufferViews":[
		{
			"buffer":0,
			"byteLength":576300,
			"byteOffset":0,
			"target":34962
		},
		{
			"buffer":0,
			"byteLength":576300,
			"byteOffset":576300,
			"target":34962
		},
		{
			"buffer":0,
			"byteLength":384200,
			"byteOffset":1152600,
			"target":34962
		},
		{
			"buffer":0,
			"byteLength":192100,
			"byteOffset":1536800,
			"target":34962
		},
		{
			"buffer":0,
			"byteLength":384200,
			"byteOffset":1728900,
			"target":34962
		},
		{
			"buffer":0,
			"byteLength":559284,
			"byteOffset":2113100,
			"target":34963
		},
		{
			"buffer":0,
			"byteLength":2412,
			"byteOffset":2672384,
			"target":34962
		},
		{
			"buffer":0,
			"byteLength":2412,
			"byteOffset":2674796,
			"target":34962
		},
		{
			"buffer":0,
			"byteLength":1608,
			"byteOffset":2677208,
			"target":34962
		},
		{
			"buffer":0,
			"byteLength":1536,
			"byteOffset":2678816,
			"target":34963
		},
		{
			"buffer":0,
			"byteLength":2376,
			"byteOffset":2680352,
			"target":34962
		},
		{
			"buffer":0,
			"byteLength":2376,
			"byteOffset":2682728,
			"target":34962
		},
		{
			"buffer":0,
			"byteLength":1584,
			"byteOffset":2685104,
			"target":34962
		},
		{
			"buffer":0,
			"byteLength":1536,
			"byteOffset":2686688,
			"target":34963
		}
	],
	"samplers":[
		{
			"magFilter":9729,
			"minFilter":9987
		}
	],
	"buffers":[
		{
			"byteLength":2688224,
			"uri":"OctopusAcamer.bin"
		}
	]
}
