{
	"asset":{
		"generator":"Khronos glTF Blender I/O v4.4.55",
		"version":"2.0"
	},
	"extensionsUsed":[
		"EXT_texture_webp"
	],
	"extensionsRequired":[
		"EXT_texture_webp"
	],
	"scene":0,
	"scenes":[
		{
			"name":"Scene",
			"nodes":[
				0,
				1,
				2,
				3
			]
		}
	],
	"nodes":[
		{
			"mesh":0,
			"name":"CourbeB\u00e9zier"
		},
		{
			"name":"CourbeB\u00e9zier.001",
			"translation":[
				-1.9079991579055786,
				0,
				-1.5369657278060913
			]
		},
		{
			"mesh":1,
			"name":"CourbeB\u00e9zier.002",
			"rotation":[
				0,
				0,
				-0.464629590511322,
				0.8855051398277283
			],
			"scale":[
				0.1357487589120865,
				0.1357487589120865,
				0.1357487589120865
			],
			"translation":[
				-1.242467999458313,
				0.6828478574752808,
				-0.052731096744537354
			]
		},
		{
			"mesh":2,
			"name":"CourbeB\u00e9zier.003",
			"rotation":[
				-0.2142477035522461,
				0.40831977128982544,
				-0.41228464245796204,
				0.7857444286346436
			],
			"scale":[
				0.1357487589120865,
				0.1357487589120865,
				0.1357487589120865
			],
			"translation":[
				-1.6524012088775635,
				0.6758737564086914,
				-0.01848762109875679
			]
		}
	],
	"materials":[
		{
			"doubleSided":true,
			"name":"Material.002",
			"pbrMetallicRoughness":{
				"baseColorFactor":[
					0.04313916340470314,
					0.26932287216186523,
					0.8019199371337891,
					1
				],
				"metallicFactor":0,
				"roughnessFactor":0.5
			}
		},
		{
			"doubleSided":true,
			"name":"Material.003",
			"pbrMetallicRoughness":{
				"baseColorTexture":{
					"index":0
				},
				"metallicFactor":0,
				"roughnessFactor":0.5
			}
		},
		{
			"doubleSided":true,
			"name":"Material.001",
			"pbrMetallicRoughness":{
				"baseColorTexture":{
					"index":1
				},
				"metallicFactor":0,
				"roughnessFactor":0.5
			}
		}
	],
	"meshes":[
		{
			"name":"CourbeB\u00e9zier.002",
			"primitives":[
				{
					"attributes":{
						"POSITION":0,
						"NORMAL":1,
						"TEXCOORD_0":2,
						"COLOR_0":3,
						"COLOR_1":4
					},
					"indices":5,
					"material":0
				}
			]
		},
		{
			"name":"CourbeB\u00e9zier.003",
			"primitives":[
				{
					"attributes":{
						"POSITION":6,
						"NORMAL":7,
						"TEXCOORD_0":8
					},
					"indices":9,
					"material":1
				}
			]
		},
		{
			"name":"CourbeB\u00e9zier.004",
			"primitives":[
				{
					"attributes":{
						"POSITION":10,
						"NORMAL":11,
						"TEXCOORD_0":12
					},
					"indices":13,
					"material":2
				}
			]
		}
	],
	"textures":[
		{
			"extensions":{
				"EXT_texture_webp":{
					"source":0
				}
			},
			"sampler":0
		},
		{
			"extensions":{
				"EXT_texture_webp":{
					"source":0
				}
			},
			"sampler":0
		}
	],
	"images":[
		{
			"mimeType":"image/webp",
			"name":"MangekySharingan.webp",
			"uri":"MangekySharingan_webp.webp"
		}
	],
	"accessors":[
		{
			"bufferView":0,
			"componentType":5126,
			"count":652443,
			"max":[
				2.428605318069458,
				1.2883274555206299,
				3.0569496154785156
			],
			"min":[
				-4.107612609863281,
				-0.17846046388149261,
				-1.594018816947937
			],
			"type":"VEC3"
		},
		{
			"bufferView":1,
			"componentType":5126,
			"count":652443,
			"type":"VEC3"
		},
		{
			"bufferView":2,
			"componentType":5126,
			"count":652443,
			"type":"VEC2"
		},
		{
			"bufferView":3,
			"componentType":5121,
			"count":652443,
			"normalized":true,
			"type":"VEC4"
		},
		{
			"bufferView":4,
			"componentType":5123,
			"count":652443,
			"normalized":true,
			"type":"VEC4"
		},
		{
			"bufferView":5,
			"componentType":5125,
			"count":3880704,
			"type":"SCALAR"
		},
		{
			"bufferView":6,
			"componentType":5126,
			"count":559,
			"max":[
				1.6767737865447998,
				2.1150331497192383,
				3.5469775199890137
			],
			"min":[
				-0.3232250213623047,
				0.11503326892852783,
				1.546978235244751
			],
			"type":"VEC3"
		},
		{
			"bufferView":7,
			"componentType":5126,
			"count":559,
			"type":"VEC3"
		},
		{
			"bufferView":8,
			"componentType":5126,
			"count":559,
			"type":"VEC2"
		},
		{
			"bufferView":9,
			"componentType":5123,
			"count":2880,
			"type":"SCALAR"
		},
		{
			"bufferView":10,
			"componentType":5126,
			"count":628,
			"max":[
				1.6767737865447998,
				2.1150331497192383,
				3.5469775199890137
			],
			"min":[
				-0.3232250213623047,
				0.11503326892852783,
				1.546978235244751
			],
			"type":"VEC3"
		},
		{
			"bufferView":11,
			"componentType":5126,
			"count":628,
			"type":"VEC3"
		},
		{
			"bufferView":12,
			"componentType":5126,
			"count":628,
			"type":"VEC2"
		},
		{
			"bufferView":13,
			"componentType":5123,
			"count":2880,
			"type":"SCALAR"
		}
	],
	"bufferViews":[
		{
			"buffer":0,
			"byteLength":7829316,
			"byteOffset":0,
			"target":34962
		},
		{
			"buffer":0,
			"byteLength":7829316,
			"byteOffset":7829316,
			"target":34962
		},
		{
			"buffer":0,
			"byteLength":5219544,
			"byteOffset":15658632,
			"target":34962
		},
		{
			"buffer":0,
			"byteLength":2609772,
			"byteOffset":20878176,
			"target":34962
		},
		{
			"buffer":0,
			"byteLength":5219544,
			"byteOffset":23487948,
			"target":34962
		},
		{
			"buffer":0,
			"byteLength":15522816,
			"byteOffset":28707492,
			"target":34963
		},
		{
			"buffer":0,
			"byteLength":6708,
			"byteOffset":44230308,
			"target":34962
		},
		{
			"buffer":0,
			"byteLength":6708,
			"byteOffset":44237016,
			"target":34962
		},
		{
			"buffer":0,
			"byteLength":4472,
			"byteOffset":44243724,
			"target":34962
		},
		{
			"buffer":0,
			"byteLength":5760,
			"byteOffset":44248196,
			"target":34963
		},
		{
			"buffer":0,
			"byteLength":7536,
			"byteOffset":44253956,
			"target":34962
		},
		{
			"buffer":0,
			"byteLength":7536,
			"byteOffset":44261492,
			"target":34962
		},
		{
			"buffer":0,
			"byteLength":5024,
			"byteOffset":44269028,
			"target":34962
		},
		{
			"buffer":0,
			"byteLength":5760,
			"byteOffset":44274052,
			"target":34963
		}
	],
	"samplers":[
		{
			"magFilter":9729,
			"minFilter":9987
		}
	],
	"buffers":[
		{
			"byteLength":44279812,
			"uri":"OctopusAcamer.bin"
		}
	]
}
